<?xml version="1.0"?>
<svg xmlns="http://www.w3.org/2000/svg" xmlns:xlink="http://www.w3.org/1999/xlink" xmlns:svgjs="http://svgjs.com/svgjs" version="1.1" width="512" height="512" x="0" y="0" viewBox="0 0 512.002 512.002" style="enable-background:new 0 0 512 512" xml:space="preserve" class=""><g><g xmlns="http://www.w3.org/2000/svg"><path d="m44.47 55.076c1.465 1.464 3.385 2.197 5.304 2.197s3.839-.732 5.304-2.197c2.929-2.929 2.929-7.678 0-10.606l-42.273-42.272c-2.93-2.929-7.678-2.929-10.607 0s-2.929 7.678 0 10.606zm190.662 19.488c4.143 0 7.5-3.358 7.5-7.5v-35.393l26.528 38.414c2.202 3.183 5.875 4.533 9.358 3.446 3.555-1.11 5.852-4.437 5.852-8.547l-.557-57.556c-.04-4.117-3.39-7.427-7.498-7.427-.025 0-.05 0-.074 0-4.143.04-7.468 3.43-7.428 7.572l.35 36.12-27.859-40.343c-1.864-2.701-5.267-3.874-8.404-2.898-3.133.977-5.268 3.878-5.268 7.16v59.452c0 4.142 3.358 7.5 7.5 7.5zm70.516-32.94c38.409 8.858 73.849 28.035 102.485 55.456 28.563 27.35 49.241 61.818 59.802 99.679.926 3.316 3.938 5.487 7.221 5.487.667 0 1.345-.09 2.019-.278 3.99-1.113 6.322-5.25 5.21-9.239-11.284-40.452-33.372-77.273-63.877-106.483-30.588-29.289-68.448-49.773-109.489-59.238-4.034-.932-8.063 1.586-8.994 5.623-.931 4.035 1.587 8.062 5.623 8.993zm-293.899 244.72c.07.356.167.708.288 1.05 1.251 3.528 4.596 5.889 8.335 5.889h.058c3.764-.024 7.105-2.435 8.316-5.997.022-.065.044-.131.064-.196l10.955-35.394 10.906 35.401c.031.102.065.203.101.303 1.253 3.525 4.597 5.884 8.334 5.884h.058c3.761-.024 7.102-2.432 8.315-5.992.106-.313.191-.631.256-.955l11.65-58.542c.809-4.063-1.829-8.011-5.892-8.82-4.062-.807-8.011 1.83-8.819 5.892l-6.859 34.469-10.882-35.322c-1.22-3.959-5.417-6.179-9.376-4.959-2.685.827-4.565 3.024-5.12 5.587l-10.74 34.699-6.839-34.574c-.805-4.063-4.747-6.706-8.813-5.902-4.063.804-6.706 4.75-5.902 8.813zm450.48-229.071c1.919 0 3.839-.732 5.304-2.197l42.272-42.272c2.929-2.929 2.929-7.678 0-10.606-2.929-2.929-7.677-2.929-10.607 0l-42.273 42.272c-2.929 2.929-2.929 7.678 0 10.606 1.465 1.465 3.384 2.197 5.304 2.197zm42.272 176.718c4.143 0 7.5-3.358 7.5-7.5s-3.357-7.5-7.5-7.5h-24.868c-4.143 0-7.5 3.358-7.5 7.5v59.02c0 4.142 3.357 7.5 7.5 7.5h24.868c4.143 0 7.5-3.358 7.5-7.5s-3.357-7.5-7.5-7.5h-17.368v-14.51h15.534c4.143 0 7.5-3.358 7.5-7.5s-3.357-7.5-7.5-7.5h-15.534v-14.51zm-469.671-32.025c.674.188 1.352.278 2.019.278 3.282 0 6.296-2.171 7.221-5.487 10.63-38.112 31.496-72.757 60.34-100.191 28.932-27.518 64.703-46.634 103.447-55.282 4.043-.902 6.589-4.911 5.687-8.954-.903-4.043-4.914-6.592-8.954-5.686-41.398 9.241-79.615 29.661-110.518 59.052-30.806 29.3-53.093 66.311-64.451 107.03-1.114 3.99 1.218 8.127 5.209 9.24zm442.343 108.069c-3.99-1.114-8.127 1.22-9.239 5.209-10.56 37.861-31.238 72.329-59.801 99.678-28.636 27.421-64.074 46.597-102.483 55.456-4.036.931-6.554 4.958-5.623 8.994.801 3.469 3.888 5.816 7.302 5.816.559 0 1.125-.063 1.692-.193 41.04-9.465 78.9-29.949 109.487-59.237 30.504-29.21 52.592-66.031 63.875-106.482 1.113-3.992-1.22-8.129-5.21-9.241zm-9.64 146.891c-2.93-2.929-7.678-2.929-10.607 0s-2.929 7.678 0 10.606l42.272 42.272c1.465 1.464 3.385 2.197 5.304 2.197s3.839-.732 5.304-2.197c2.929-2.929 2.929-7.678 0-10.606zm-115.62-92.898c3.099 0 6.147-1.224 8.52-3.596 4.028-4.028 4.745-10.003 1.784-14.869l-34.938-57.435 8.804-2.144c4.024-.98 6.493-5.037 5.513-9.062-.98-4.024-5.041-6.494-9.062-5.512l-41.989 10.226c-4.419 1.077-7.832 4.49-8.907 8.908l-25.636 105.258-25.636-105.257c-1.075-4.419-4.488-7.833-8.908-8.909l-105.258-25.635 105.259-25.635c4.419-1.077 7.832-4.49 8.907-8.908l25.635-105.258 25.636 105.257c1.075 4.419 4.488 7.833 8.908 8.909l105.258 25.635-36.93 8.994c-4.024.98-6.493 5.038-5.513 9.062.979 4.023 5.035 6.49 9.062 5.512l48.42-11.792c5.533-1.348 9.252-6.081 9.251-11.777 0-5.695-3.718-10.427-9.252-11.775l-83.563-20.352 34.938-57.434c2.961-4.866 2.244-10.841-1.783-14.869-4.029-4.029-10.005-4.745-14.869-1.785l-57.435 34.938-20.352-83.562c-1.347-5.534-6.079-9.252-11.774-9.253-.001 0 0 0-.001 0-5.695 0-10.428 3.718-11.776 9.252l-20.351 83.562-57.434-34.937c-4.865-2.96-10.841-2.245-14.869 1.784-4.028 4.028-4.745 10.003-1.784 14.869l27.486 45.187c1.411 2.321 3.883 3.604 6.414 3.604 1.328 0 2.673-.353 3.891-1.093 3.539-2.153 4.663-6.767 2.51-10.305l-21.34-35.083 51.402 31.268-3.943 16.191-115.046 28.019c-5.533 1.348-9.252 6.081-9.251 11.777 0 5.695 3.718 10.427 9.252 11.775l83.563 20.352-34.938 57.434c-2.961 4.866-2.244 10.841 1.783 14.869 2.373 2.373 5.422 3.597 8.521 3.597 2.162 0 4.349-.595 6.348-1.812l57.435-34.938 20.352 83.562c1.347 5.534 6.079 9.252 11.774 9.253h.001c5.695 0 10.428-3.718 11.776-9.252l20.351-83.563 57.434 34.937c2 1.216 4.186 1.811 6.35 1.811zm-8.658-195.282-31.268 51.403-16.191-3.943-3.943-16.191zm-174.508 174.509 31.268-51.403 16.191 3.943 3.943 16.191zm123.106-31.268 3.943-16.191 16.191-3.943 31.268 51.402zm-26.667 156.165c-7.307-2.695-14.109-5.63-16.208-6.548-1.594-1.286-1.54-3.075-1.433-3.822.149-1.041.906-3.585 4.699-4.728 8.36-2.517 16.109 3.594 16.341 3.779 3.17 2.63 7.873 2.211 10.528-.947 2.665-3.171 2.256-7.902-.915-10.567-.563-.474-13.979-11.541-30.28-6.627-8.243 2.483-14.075 8.98-15.221 16.958-1.075 7.486 2.17 14.688 8.469 18.795.331.216.679.405 1.04.567.345.154 8.549 3.805 17.788 7.213 2.599.958 8.559 3.661 7.775 8.048-.591 3.307-4.624 6.728-10.352 6.728-5.905 0-11.587-2.38-15.199-6.366-2.783-3.07-7.526-3.301-10.594-.521-3.069 2.782-3.303 7.524-.521 10.594 6.409 7.071 16.246 11.292 26.314 11.292 12.579 0 23.143-8.029 25.117-19.091 1.489-8.326-2.288-19.202-17.348-24.757zm-220.716-11.226-42.272 42.272c-2.929 2.929-2.929 7.678 0 10.606 1.465 1.465 3.384 2.197 5.304 2.197 1.919 0 3.839-.732 5.304-2.197l42.272-42.272c2.929-2.929 2.929-7.678 0-10.606-2.929-2.93-7.677-2.93-10.608 0zm172.22 15.574c-83.738-15.102-151.832-78.066-173.476-160.411-1.054-4.006-5.154-6.399-9.16-5.347-4.007 1.053-6.4 5.154-5.348 9.16 23.122 87.964 95.864 155.226 185.321 171.359.45.081.897.121 1.34.121 3.56 0 6.718-2.544 7.372-6.17.736-4.076-1.973-7.977-6.049-8.712z" fill="#24b110" data-original="#000000" style="" class=""/></g></g></svg>
